<svg xmlns="http://www.w3.org/2000/svg" xmlns:xlink="http://www.w3.org/1999/xlink" width="500" zoomAndPan="magnify" viewBox="0 0 375 374.999991" height="500" preserveAspectRatio="xMidYMid meet" version="1.0"><rect x="-37.5" width="450" fill="#ffffff" y="-37.499999" height="449.999989" fill-opacity="1"/><rect x="-37.5" width="450" fill="#ffffff" y="-37.499999" height="449.999989" fill-opacity="1"/><path fill="#30d1ff" d="M 107.210938 141.605469 L 188.417969 75.789062 C 200 66.46875 216.945312 68.164062 226.265625 79.746094 C 235.589844 91.324219 233.753906 108.273438 222.171875 117.59375 L 140.964844 183.269531 C 132.632812 190.046875 128.113281 199.933594 127.832031 209.820312 L 103.257812 179.453125 L 103.117188 179.3125 C 93.792969 167.875 95.632812 150.925781 107.210938 141.605469 Z M 107.210938 141.605469 " fill-opacity="1" fill-rule="evenodd"/><path fill="#0372ff" d="M 184.742188 237.363281 C 196.183594 228.039062 213.128906 229.875 222.449219 241.457031 C 231.773438 252.894531 230.078125 269.84375 218.496094 279.164062 C 206.914062 288.484375 189.96875 286.792969 180.644531 275.210938 C 171.324219 263.628906 173.160156 246.683594 184.742188 237.359375 Z M 184.742188 237.363281 " fill-opacity="1" fill-rule="evenodd"/><path fill="#30d1ff" d="M 188.417969 155.871094 C 200 146.40625 216.804688 148.242188 226.125 159.824219 C 235.589844 171.265625 233.75 188.210938 222.171875 197.535156 L 180.085938 231.710938 C 171.613281 238.492188 167.234375 248.519531 167.375 258.6875 L 142.378906 227.757812 L 142.234375 227.757812 C 132.914062 216.175781 134.75 199.226562 146.191406 189.90625 L 146.332031 189.90625 Z M 188.417969 155.871094 " fill-opacity="1" fill-rule="evenodd"/></svg>